<?xml version="1.0" encoding="UTF-8" standalone="no"?><!DOCTYPE svg PUBLIC "-//W3C//DTD SVG 1.1//EN" "http://www.w3.org/Graphics/SVG/1.1/DTD/svg11.dtd"><svg xmlns="http://www.w3.org/2000/svg" version="1.1" width="1881.12" height="1326.35"><path fill="none" stroke="#000000" stroke-width="2" stroke-linecap="round" stroke-linejoin="round" d="M 631.41 820.69 c -0.23 0.34 -13.23 19.7 -12.94 19.41 c 0.4 -0.4 12.25 -17.53 19.41 -25.88 c 19.26 -22.47 37.6 -42.59 58.23 -64.7 c 73.78 -79.05 138.59 -150.09 213.51 -226.45 c 40.76 -41.55 79.64 -78.11 122.93 -116.46 c 34.1 -30.2 67.39 -57.34 103.52 -84.11 c 22.85 -16.93 47.19 -33.3 71.17 -45.29 c 13.39 -6.7 30.47 -10.47 45.29 -12.94 c 10.18 -1.7 28.39 -5.09 32.35 0 c 7.3 9.39 15.57 40.89 12.94 58.23 c -7.12 47.02 -22.64 109.14 -45.29 155.28 c -33.43 68.09 -82.47 135.11 -129.4 200.57 c -36.16 50.43 -74.6 98.02 -116.46 142.34 c -31.31 33.15 -67.36 62.45 -103.52 90.58 c -22.18 17.25 -46.96 31.67 -71.17 45.29 c -10 5.62 -32.35 12.94 -32.35 12.94"/><path fill="none" stroke="#000000" stroke-width="2" stroke-linecap="round" stroke-linejoin="round" d="M 1317.23 1008.32 c 0 -0.68 -3.05 -27.22 0 -38.82 c 7.09 -26.94 19.15 -56.93 32.35 -84.11 c 23.75 -48.9 48.43 -96.44 77.64 -142.34 c 31.71 -49.83 66.02 -96.63 103.52 -142.34 c 32.19 -39.23 68.14 -71.53 103.52 -109.99 c 16.11 -17.51 37.7 -50.92 45.29 -51.76 c 5.2 -0.58 17.28 33.73 12.94 45.29 c -17.06 45.5 -65.24 104.89 -90.58 161.75 c -63.89 143.35 -116.64 283.98 -174.69 433.49 c -15.25 39.27 -30.45 78.81 -38.82 116.46 c -3.97 17.86 -6.93 48.7 0 58.23 c 6.35 8.73 51.76 12.94 51.76 12.94"/><path fill="none" stroke="#000000" stroke-width="2" stroke-linecap="round" stroke-linejoin="round" d="M 1491.92 943.62 c 0 -0.91 -4.68 -37.04 0 -51.76 c 9.16 -28.79 27.54 -61.84 45.29 -90.58 c 27.69 -44.83 57.39 -87.91 90.58 -129.4 c 36.58 -45.73 75.4 -85.77 116.46 -129.4 c 30.21 -32.1 58.91 -60.42 90.58 -90.58 c 14.75 -14.05 45.95 -41.87 45.29 -38.82 c -2.26 10.39 -47.36 126.16 -77.64 187.63 c -41.89 85.04 -92.5 160.29 -135.87 245.86 c -38.44 75.85 -73.18 149.22 -103.52 226.45 c -17.22 43.83 -29.49 90.54 -38.82 135.87 c -5.57 27.06 -6.47 57.16 -6.47 84.11 c 0 10.54 0.66 29.44 6.47 32.35 c 10.26 5.13 40.85 4.34 58.23 0 c 31.19 -7.8 97.05 -38.82 97.05 -38.82"/><path fill="none" stroke="#000000" stroke-width="2" stroke-linecap="round" stroke-linejoin="round" d="M 24 156 c 0.09 -0.28 2.42 -11.36 5 -16 c 5.41 -9.75 12.69 -19.62 20 -29 c 8.24 -10.57 16.58 -20.44 26 -30 c 13.6 -13.8 27.84 -26.74 42 -39 c 2.88 -2.49 7.9 -6 10 -6 c 1.3 0 4.52 4.4 4 6 c -2.74 8.42 -10.39 23.17 -17 34 c -9.12 14.94 -19.15 28.6 -30 43 c -21.82 28.94 -43.56 54.32 -65 83 c -6.77 9.05 -17.36 26.85 -18 28 l 4 -3"/><path fill="none" stroke="#000000" stroke-width="2" stroke-linecap="round" stroke-linejoin="round" d="M 100 156 l 1 1"/><path fill="none" stroke="#000000" stroke-width="2" stroke-linecap="round" stroke-linejoin="round" d="M 150 102 c 0.03 -0.1 0.81 -4.47 2 -6 c 7.47 -9.6 16.62 -20.46 26 -30 c 10.87 -11.05 33.85 -32.19 34 -31 c 0.18 1.47 -22.73 30.74 -32 47 c -6.93 12.17 -12.17 25.71 -17 39 c -3.17 8.72 -5.52 18.15 -7 27 c -0.79 4.76 -0.65 10.88 0 15 c 0.22 1.37 1.82 3.8 3 4 c 3.55 0.59 11.65 1.13 15 -1 c 5.99 -3.81 12.39 -12.91 18 -20 c 5.84 -7.39 11.5 -14.96 16 -23 c 4.75 -8.48 11.54 -25.5 12 -27 c 0.1 -0.33 -4.14 2.34 -5 4 c -3.32 6.4 -7.16 15.45 -9 23 c -1.34 5.51 -2.69 15.47 -1 18 c 1.22 1.83 9.93 1.71 13 0 c 7.2 -4 16.91 -12.52 23 -20 c 7.99 -9.8 16.32 -22.57 21 -34 c 3.81 -9.31 5.36 -21.51 6 -32 c 0.67 -10.97 -0.38 -23.08 -2 -34 l -6 -20"/><path fill="none" stroke="#000000" stroke-width="2" stroke-linecap="round" stroke-linejoin="round" d="M 298 115 c -0.12 -0.03 -6.68 -0.92 -7 -2 c -0.4 -1.32 3.39 -5.33 4 -8 c 0.95 -4.19 1.98 -11.4 1 -14 c -0.51 -1.35 -5.68 -2.88 -7 -2 c -3.23 2.15 -8.13 9.11 -11 14 c -2.6 4.43 -4.75 10.19 -6 15 c -0.62 2.38 -1.11 6.66 0 8 c 1.5 1.8 7.35 4.44 10 4 c 3.97 -0.66 10.57 -4.57 14 -8 c 5.19 -5.19 10.18 -13.09 14 -20 c 3.02 -5.46 5.17 -11.86 7 -18 c 1.84 -6.18 4.41 -18.08 4 -19 c -0.27 -0.61 -6.45 6.58 -8 10 c -1.48 3.25 -1.58 7.99 -2 12 c -0.24 2.31 -1.1 5.82 0 7 c 2.31 2.49 8.72 6.19 13 7 c 6.96 1.32 16.1 0.92 24 0 c 17.69 -2.07 34.91 -7.05 53 -9 c 25.97 -2.8 50.42 -2.79 77 -5 c 23.2 -1.93 67 -7 67 -7"/><path fill="none" stroke="#000000" stroke-width="2" stroke-linecap="round" stroke-linejoin="round" d="M 244 86 c 0.4 -0.05 15.59 -1.15 23 -3 c 12.43 -3.11 24.13 -8.11 37 -12 c 13.41 -4.06 25.6 -7.87 39 -11 c 12.78 -2.99 25.32 -5.75 38 -7 c 10.83 -1.07 25.9 -1.01 33 0 c 1.16 0.17 2.45 3.8 2 5 c -1.13 3.03 -4.62 8.64 -8 11 c -12.93 9.03 -29.16 19.22 -45 26 c -41.68 17.83 -83.95 32.48 -128 48 c -16.11 5.68 -31.69 9.98 -48 14 c -8.26 2.04 -16.66 2.92 -25 4 c -1.98 0.26 -6.25 0.29 -6 0 c 0.7 -0.79 14 -9 14 -9"/></svg>